# Aspose.3D Wavefront OBJ Exporter
# Copyright 2004-2024 Aspose Pty Ltd.
# File created: 03/13/2024 03:11:32

mtllib material.lib
g pCone1

#
# object pCone1
#

v 0.95105714 0 -0.30901706
v 0.80901754 0 -0.5877855
v 0.5877856 0 -0.80901736
v 0.30901715 0 -0.9510569
v 5.9604643E-10 0 -1.0000004
v -0.30901715 0 -0.95105684
v -0.5877855 0 -0.8090172
v -0.80901724 0 -0.5877853
v -0.9510568 0 -0.30901694
v -1.0000002 0 1.1831522E-07
v -0.9510568 0 0.30901718
v -0.8090172 0 0.5877855
v -0.58778536 0 0.80901724
v -0.30901706 0 0.9510568
v -2.9206277E-08 0 1.0000002
v 0.30901697 0 0.9510567
v 0.58778524 0 0.8090172
v 0.809017 0 0.5877854
v 0.95105654 0 0.30901712
v 1 0 1.1831522E-07
v 5.9604643E-10 2 1.1831522E-07
v 0 0 0
# 22 vertices

vn 0.85065097 0.44721386 -0.27639237
vn 0.7236067 0.44721383 -0.5257311
vn -2.3243928E-07 1 -9.771059E-07
vn 0.7236067 0.44721383 -0.5257311
vn 0.52573097 0.44721386 -0.72360677
vn -2.3243928E-07 1 -9.771059E-07
vn 0.52573097 0.44721386 -0.72360677
vn 0.27639306 0.4472138 -0.8506508
vn -2.3243928E-07 1 -9.771059E-07
vn 0.27639306 0.4472138 -0.8506508
vn -9.3400445E-08 0.44721377 -0.8944271
vn -2.3243928E-07 1 -9.771059E-07
vn -9.3400445E-08 0.44721377 -0.8944271
vn -0.2763933 0.44721374 -0.85065067
vn -2.3243928E-07 1 -9.771059E-07
vn -0.2763933 0.44721374 -0.85065067
vn -0.52573127 0.4472137 -0.72360665
vn -2.3243928E-07 1 -9.771059E-07
vn -0.52573127 0.4472137 -0.72360665
vn -0.7236068 0.44721368 -0.52573097
vn -2.3243928E-07 1 -9.771059E-07
vn -0.7236068 0.44721368 -0.52573097
vn -0.8506508 0.44721368 -0.27639312
vn -2.3243928E-07 1 -9.771059E-07
vn -0.8506508 0.44721368 -0.27639312
vn -0.8944272 0.44721368 0
vn -2.3243928E-07 1 -9.771059E-07
vn -0.8944272 0.44721368 0
vn -0.8506508 0.44721368 0.2763932
vn -2.3243928E-07 1 -9.771059E-07
vn -0.8506508 0.44721368 0.2763932
vn -0.7236067 0.4472137 0.5257312
vn -2.3243928E-07 1 -9.771059E-07
vn -0.7236067 0.4472137 0.5257312
vn -0.525731 0.44721368 0.7236068
vn -2.3243928E-07 1 -9.771059E-07
vn -0.525731 0.44721368 0.7236068
vn -0.27639315 0.44721365 0.8506508
vn -2.3243928E-07 1 -9.771059E-07
vn -0.27639315 0.44721365 0.8506508
vn 8.621585E-08 0.44721365 0.8944272
vn -2.3243928E-07 1 -9.771059E-07
vn 8.621585E-08 0.44721365 0.8944272
vn 0.27639326 0.4472136 0.8506507
vn -2.3243928E-07 1 -9.771059E-07
vn 0.27639326 0.4472136 0.8506507
vn 0.52573115 0.4472136 0.72360677
vn -2.3243928E-07 1 -9.771059E-07
vn 0.52573115 0.4472136 0.72360677
vn 0.7236068 0.4472136 0.52573115
vn -2.3243928E-07 1 -9.771059E-07
vn 0.7236068 0.4472136 0.52573115
vn 0.85065085 0.4472136 0.27639318
vn -2.3243928E-07 1 -9.771059E-07
vn 0.85065085 0.4472136 0.27639318
vn 0.89442724 0.44721362 8.1186545E-07
vn -2.3243928E-07 1 -9.771059E-07
vn 0.89442724 0.44721362 8.1186545E-07
vn 0.85065097 0.44721386 -0.27639237
vn -2.3243928E-07 1 -9.771059E-07
vn 0 -1 0
vn 0 -1 0
vn 0 -1 0
vn 0 -1 0
vn 0 -1 0
vn 0 -1 0
vn 0 -1 0
vn 0 -1 0
vn 0 -1 0
vn 0 -1 0
vn 0 -1 0
vn 0 -1 0
vn 0 -1 0
vn 0 -1 0
vn 0 -1 0
vn 0 -1 0
vn 0 -1 0
vn 0 -1 0
vn 0 -1 0
vn 0 -1 0
vn 0 -1 0
vn 0 -1 0
vn 0 -1 0
vn 0 -1 0
vn 0 -1 0
vn 0 -1 0
vn 0 -1 0
vn 0 -1 0
vn 0 -1 0
vn 0 -1 0
vn 0 -1 0
vn 0 -1 0
vn 0 -1 0
vn 0 -1 0
vn 0 -1 0
vn 0 -1 0
vn 0 -1 0
vn 0 -1 0
vn 0 -1 0
vn 0 -1 0
vn 0 -1 0
vn 0 -1 0
vn 0 -1 0
vn 0 -1 0
vn 0 -1 0
vn 0 -1 0
vn 0 -1 0
vn 0 -1 0
vn 0 -1 0
vn 0 -1 0
vn 0 -1 0
vn 0 -1 0
vn 0 -1 0
vn 0 -1 0
vn 0 -1 0
vn 0 -1 0
vn 0 -1 0
vn 0 -1 0
vn 0 -1 0
vn 0 -1 0
# 120 vertex normals

vt 0.7377643 0.1727457 0
vt 0.7022544 0.1030536 0
vt 0.64694643 0.04774563 0
vt 0.5772543 0.012235746 0
vt 0.5 -1.1920929E-07 0
vt 0.4227457 0.012235761 0
vt 0.35305363 0.047745675 0
vt 0.2977457 0.103053644 0
vt 0.26223582 0.17274573 0
vt 0.24999994 0.25 0
vt 0.26223582 0.32725427 0
vt 0.2977457 0.39694634 0
vt 0.35305366 0.4522543 0
vt 0.42274573 0.48776418 0
vt 0.5 0.5 0
vt 0.57725424 0.48776415 0
vt 0.6469463 0.45225427 0
vt 0.70225424 0.3969463 0
vt 0.7377641 0.32725424 0
vt 0.75 0.25 0
vt 0.25 0.5 0
vt 0.275 0.5 0
vt 0.3 0.5 0
vt 0.32500002 0.5 0
vt 0.35000002 0.5 0
vt 0.37500003 0.5 0
vt 0.40000004 0.5 0
vt 0.42500004 0.5 0
vt 0.45000005 0.5 0
vt 0.47500005 0.5 0
vt 0.50000006 0.5 0
vt 0.52500004 0.5 0
vt 0.55 0.5 0
vt 0.575 0.5 0
vt 0.59999996 0.5 0
vt 0.62499994 0.5 0
vt 0.6499999 0.5 0
vt 0.6749999 0.5 0
vt 0.69999987 0.5 0
vt 0.72499985 0.5 0
vt 0.7499998 0.5 0
vt 0.5 1 0
vt 0.49999994 0.24999996 0
# 43 texture coords

usemtl Cone1
s 1
f 1/21/1 2/22/2 21/42/3
f 2/22/4 3/23/5 21/42/6
f 3/23/7 4/24/8 21/42/9
f 4/24/10 5/25/11 21/42/12
f 5/25/13 6/26/14 21/42/15
f 6/26/16 7/27/17 21/42/18
f 7/27/19 8/28/20 21/42/21
f 8/28/22 9/29/23 21/42/24
f 9/29/25 10/30/26 21/42/27
f 10/30/28 11/31/29 21/42/30
f 11/31/31 12/32/32 21/42/33
f 12/32/34 13/33/35 21/42/36
f 13/33/37 14/34/38 21/42/39
f 14/34/40 15/35/41 21/42/42
f 15/35/43 16/36/44 21/42/45
f 16/36/46 17/37/47 21/42/48
f 17/37/49 18/38/50 21/42/51
f 18/38/52 19/39/53 21/42/54
f 19/39/55 20/40/56 21/42/57
f 20/40/58 1/41/59 21/42/60
f 1/1/61 20/20/62 22/43/63
f 20/20/64 19/19/65 22/43/66
f 19/19/67 18/18/68 22/43/69
f 18/18/70 17/17/71 22/43/72
f 17/17/73 16/16/74 22/43/75
f 16/16/76 15/15/77 22/43/78
f 15/15/79 14/14/80 22/43/81
f 14/14/82 13/13/83 22/43/84
f 13/13/85 12/12/86 22/43/87
f 12/12/88 11/11/89 22/43/90
f 11/11/91 10/10/92 22/43/93
f 10/10/94 9/9/95 22/43/96
f 9/9/97 8/8/98 22/43/99
f 8/8/100 7/7/101 22/43/102
f 7/7/103 6/6/104 22/43/105
f 6/6/106 5/5/107 22/43/108
f 5/5/109 4/4/110 22/43/111
f 4/4/112 3/3/113 22/43/114
f 3/3/115 2/2/116 22/43/117
f 2/2/118 1/1/119 22/43/120
#40 polygons

